<svg width="93" height="81" fill="none" xmlns="http://www.w3.org/2000/svg"><path d="M58.67 34.64H55.4a3.13 3.13 0 0 1-3.09 2.71v3.28a6.4 6.4 0 0 0 6.36-5.99ZM58.67 33.77a6.4 6.4 0 0 0-6.36-6v3.27c1.6 0 2.92 1.2 3.12 2.73h3.24Z" fill="#242424"/><path d="M58.67 43.41a6.4 6.4 0 0 0-6.36-6v3.27c1.6 0 2.92 1.2 3.12 2.73h3.24ZM58.67 44.28H55.4A3.13 3.13 0 0 1 52.31 47v3.28a6.4 6.4 0 0 0 6.36-5.99ZM35.34 0a6.4 6.4 0 0 0-5.95 6.42h3.24c0-1.61 1.19-2.94 2.71-3.15V0ZM51.45 27.82a6.43 6.43 0 0 0-5.95 6.42h3.24c0-1.62 1.2-2.92 2.71-3.15v-3.27ZM36.18 0v3.3a3.14 3.14 0 0 1 2.68 3.12h3.24A6.39 6.39 0 0 0 36.18 0ZM52.24 8.87v3.3a3.14 3.14 0 0 1 2.68 3.12h3.25a6.35 6.35 0 0 0-5.93-6.42ZM36.15 22.68a6.4 6.4 0 0 0 5.95-6.42h-3.24c0 1.61-1.19 2.94-2.7 3.15v3.27ZM35.32 22.65v-3.27a3.14 3.14 0 0 1-2.69-3.12h-3.24a6.34 6.34 0 0 0 5.93 6.4ZM22.42.46H19.2v21.68h3.22V.46ZM32.63 9.64h-9.4v3.25h9.4V9.64ZM58.2.46H45.44v3.25h12.74V.46ZM42.1 9.64h-3.24v3.25h3.24V9.64Z" fill="#242424"/><path d="M53 8.87h-3.24v3.25H53V8.87ZM35.32 27.69a6.4 6.4 0 0 0-5.96 6.42h3.24c0-1.61 1.2-2.94 2.72-3.15V27.7ZM36.18 27.69v3.3a3.14 3.14 0 0 1 2.68 3.12h3.24c0-3.4-2.63-6.19-5.92-6.42ZM36.15 50.5a6.4 6.4 0 0 0 5.95-6.42h-3.24c0 1.6-1.19 2.94-2.7 3.14v3.28ZM35.29 50.5v-3.3a3.14 3.14 0 0 1-2.69-3.12h-3.24a6.4 6.4 0 0 0 5.93 6.42ZM42.1 35.03h-3.24v8.1h3.24v-8.1ZM48.77 33.34h-3.25v3.25h3.25v-3.25ZM48.77 41.52h-3.25v3.25h3.25v-3.25ZM54.06 37.33H45.4v3.25h8.66v-3.25ZM32.6 35.03h-3.24v8.1h3.24v-8.1ZM48.7 4.68h-3.25v7.39h3.24v-7.4Z" fill="#242424"/><path d="M51.45 50.37v-3.3a3.14 3.14 0 0 1-2.68-3.12h-3.25a6.4 6.4 0 0 0 5.93 6.42ZM73.29 34.64h-3.27a3.13 3.13 0 0 1-3.09 2.71v3.28a6.4 6.4 0 0 0 6.36-5.99Z" fill="#242424"/><path d="M73.29 43.41a6.4 6.4 0 0 0-6.36-6v3.27c1.6 0 2.92 1.2 3.12 2.73h3.24ZM65.2 28.15h-3.23v8.44h3.24v-8.44ZM65.2 41.52h-3.23v8.34h3.24v-8.34Z" fill="#242424"/><path d="M68.43 37.33h-6.59v3.25h6.59v-3.25ZM81.63 33.34h-3.25v3.25h3.25v-3.25ZM91.13 33.34h-3.25v3.25h3.25v-3.25ZM91.13 41.4h-3.25v3.24h3.25V41.4Z" fill="#242424"/><path d="M84.34 27.69a6.43 6.43 0 0 0-5.96 6.42h3.25c0-1.61 1.19-2.92 2.7-3.15V27.7ZM85.2 27.69v3.3a3.14 3.14 0 0 1 2.68 3.12h3.25a6.4 6.4 0 0 0-5.93-6.42ZM76.1 27.64a6.4 6.4 0 0 0-5.95 6.42h3.24c0-1.61 1.2-2.92 2.71-3.15v-3.27ZM76.1 50.5a6.4 6.4 0 0 1-5.95-6.42h3.24c0 1.6 1.2 2.94 2.71 3.14v3.28ZM91.13 43.82H87.9v6.01h3.22v-6ZM81.63 41.4h-3.25v3.24h3.25V41.4Z" fill="#242424"/><path d="M81.63 43.82H78.4v6.01h3.22v-6ZM91.13 37.33H78.38v3.25h12.75v-3.25ZM6 5.63H2.76v3.24H6V5.63ZM15.5 5.63h-3.24v3.24h3.24V5.63ZM32.6 5.63h-3.24v3.24h3.24V5.63ZM42.13 5.63h-3.24v3.24h3.24V5.63ZM32.6 13.7h-3.24v3.25h3.24V13.7ZM42.13 13.7h-3.24v3.25h3.24V13.7ZM52.24 22.68a6.4 6.4 0 0 0 5.95-6.42h-3.24c0 1.61-1.2 2.94-2.71 3.15v3.27ZM51.38 22.65v-3.27a3.14 3.14 0 0 1-2.69-3.12h-3.24c0 3.4 2.6 6.19 5.93 6.4Z" fill="#242424"/><path d="M48.7 12.94h-3.25v4.01h3.24v-4.01ZM6 9.95H2.76v7H6v-7ZM8.71 0a6.43 6.43 0 0 0-5.95 6.42H6C6 4.8 7.2 3.5 8.71 3.27V0ZM9.58 0v3.3a3.14 3.14 0 0 1 2.68 3.12h3.24A6.4 6.4 0 0 0 9.58 0Z" fill="#242424"/><path d="M.03 22.53a6.4 6.4 0 0 0 5.95-6.42H2.74c0 1.6-1.2 2.91-2.71 3.14v3.28ZM15.5 9.95H12.3v12.2h3.21V9.94ZM65.13 11.22l-3.21 4.33V.46h3.21v10.76ZM74.81 22.2h-3.22V11.7l3.22-4.12v14.6ZM74.81.03l-12.9 17.5v5.25L74.82 5.4V.03ZM15.38 39.2l-3.22 4.03V39l3.22-4.35v4.56ZM25.69 49.88h-3.22v-11l3.22-3.85v14.85ZM25.69 27.72l-13.53 17.5v5.25l13.53-17.39v-5.36ZM15.38 27.72 0 45.22v5.25l15.38-17.39v-5.36ZM70.15 55.07c-4.64.31-8.31 4.2-8.31 8.95h4.53a4.4 4.4 0 0 1 3.8-4.37v-4.58h-.02ZM71.34 55.07v4.58a4.4 4.4 0 0 1 3.75 4.37h4.53a8.94 8.94 0 0 0-8.28-8.95Z" fill="#242424"/><path d="M83.47 55.07c-4.63.31-8.3 4.2-8.3 8.95h4.53a4.4 4.4 0 0 1 3.8-4.37v-4.58h-.03ZM84.67 55.07v4.58a4.4 4.4 0 0 1 3.74 4.37h4.54a8.92 8.92 0 0 0-8.28-8.95ZM76.84 75.58c-2.23-1.1-9.9-5.3-10.26-10.33h-4.74c.35 7.52 12.16 13.73 14.97 15.1v-4.77h.03ZM88.29 65.25c-.33 5.04-8.03 9.23-10.26 10.33v4.78c2.81-1.38 14.64-7.6 14.97-15.11h-4.71Z" fill="#242424"/></svg>