<svg width="240" height="56" viewBox="0 0 240 56" fill="none" xmlns="http://www.w3.org/2000/svg">
<rect x="0.5" y="0.5" width="239" height="55" stroke="black"/>
<path d="M18.56 26.344V22.536H25.12V21.576H17.504V33H22.192C24.624 33 25.952 31.736 25.952 29.672C25.952 27.608 24.624 26.344 22.192 26.344H18.56ZM18.56 32.04V27.304H22.016C24.144 27.304 24.896 28.232 24.896 29.672C24.896 31.112 24.144 32.04 22.016 32.04H18.56ZM28.3165 21.576V33H30.1725L36.0285 22.696H36.3485V33H37.4045V21.576H35.5485L29.7085 31.88H29.3725V21.576H28.3165ZM39.0663 31.944V33H39.3383C41.6903 33 42.6343 31.528 42.6343 25.864V22.536H47.7222V33H48.7783V21.576H41.6103V25.864C41.6103 30.952 40.8583 31.944 39.3383 31.944H39.0663ZM52.8413 32.04V27.528H58.2973V26.568H52.8413V22.536H59.5453V21.576H51.7853V33H59.8173V32.04H52.8413ZM69.681 21.576H60.929V22.504H64.785V33H65.841V22.504H69.681V21.576ZM72.5444 32.04V27.096H75.7124C77.9364 27.096 78.7204 28.072 78.7204 29.56C78.7204 31.064 77.9364 32.04 75.7124 32.04H72.5444ZM75.9044 33C78.4004 33 79.7764 31.704 79.7764 29.576C79.7764 27.416 78.4004 26.136 75.9044 26.136H72.5444V21.576H71.4884V33H75.9044ZM81.4244 21.576V33H82.4804V21.576H81.4244Z" fill="#242424"/>
<path fill-rule="evenodd" clip-rule="evenodd" d="M220 27.4766L219.275 28.2014L213.477 34L212.774 33.2971L218.094 27.9765L199 27.9765L199 26.9765L218.05 26.9765L212.799 21.7248L213.523 21L219.297 26.7737L220 27.4766Z" fill="#242424"/>
</svg>
